<svg id="그룹_20" data-name="그룹 20" xmlns="http://www.w3.org/2000/svg" xmlns:xlink="http://www.w3.org/1999/xlink" width="270" height="225" viewBox="0 0 270 225">
  <defs>
    <clipPath id="clip-path">
      <rect id="사각형_27" data-name="사각형 27" width="270" height="225" fill="none"/>
    </clipPath>
  </defs>
  <g id="그룹_7" data-name="그룹 7" clip-path="url(#clip-path)">
    <path id="패스_41" data-name="패스 41" d="M792.362,687.161c0,5.057-9.919,9.157-22.154,9.157s-22.154-4.1-22.154-9.157S757.973,678,770.208,678s22.154,4.1,22.154,9.157" transform="translate(-522.689 -471.318)" fill="#2474ff"/>
    <path id="패스_42" data-name="패스 42" d="M763.077,539.008c0,7.28-9.969,13.181-22.266,13.181s-22.266-5.9-22.266-13.181,9.969-13.181,22.266-13.181,22.266,5.9,22.266,13.181" transform="translate(-502.07 -365.532)" fill="#fff"/>
    <path id="패스_43" data-name="패스 43" d="M763.077,549.31c0,7.28-9.969,13.181-22.266,13.181s-22.266-5.9-22.266-13.181,9.969-13.181,22.266-13.181,22.266,5.9,22.266,13.181" transform="translate(-502.07 -372.693)" fill="#e0e0e0"/>
    <path id="패스_44" data-name="패스 44" d="M743.623,571.757c9.759,0,18.045-3.719,21.053-8.891-3.008-5.173-11.294-8.891-21.053-8.891s-18.045,3.718-21.053,8.891c3.008,5.173,11.294,8.891,21.053,8.891" transform="translate(-504.883 -385.099)" fill="#2474ff"/>
    <path id="패스_45" data-name="패스 45" d="M739.412,551.409c-12.61,0-22.868-6.186-22.868-13.791s10.259-13.791,22.868-13.791,22.868,6.187,22.868,13.791-10.259,13.791-22.868,13.791m0-26.363c-11.945,0-21.663,5.64-21.663,12.572s9.718,12.572,21.663,12.572,21.663-5.64,21.663-12.572-9.718-12.572-21.663-12.572" transform="translate(-500.672 -364.141)" fill="#2474ff"/>
    <path id="패스_46" data-name="패스 46" d="M742.226,570.977c-9.706,0-18.375-3.694-21.572-9.191a.617.617,0,0,1,0-.619c3.2-5.5,11.866-9.192,21.572-9.192s18.376,3.694,21.572,9.192a.616.616,0,0,1,0,.618c-3.2,5.5-11.866,9.192-21.572,9.192m-20.346-9.5c3.134,4.967,11.24,8.281,20.346,8.281s17.212-3.314,20.346-8.281c-3.134-4.967-11.239-8.282-20.346-8.282s-17.212,3.315-20.346,8.282" transform="translate(-503.486 -383.709)" fill="#2474ff"/>
    <path id="패스_47" data-name="패스 47" d="M741.268,586.2c-11.305,0-20.636-4.989-22.069-11.45l4.213,36.975a6.42,6.42,0,0,0,.13,1.144l.007.056h.005c1.116,5.205,8.618,9.231,17.713,9.231s16.6-4.026,17.713-9.231h.006l.006-.056a6.386,6.386,0,0,0,.13-1.144l4.213-36.975c-1.433,6.461-10.763,11.45-22.068,11.45" transform="translate(-502.527 -399.538)" fill="#fff"/>
    <path id="패스_48" data-name="패스 48" d="M739.87,621.371c-9.2,0-17.039-4.135-18.284-9.631a.606.606,0,0,1-.033-.139l0-.03a6.977,6.977,0,0,1-.136-1.2l-4.21-36.948a.609.609,0,0,1,.5-.671.6.6,0,0,1,.689.468c1.387,6.256,10.622,10.974,21.48,10.974s20.093-4.718,21.481-10.974a.6.6,0,0,1,.688-.468.609.609,0,0,1,.5.671l-4.21,36.949a7.087,7.087,0,0,1-.136,1.2l0,.03a.614.614,0,0,1-.033.142c-1.247,5.5-9.083,9.628-18.284,9.628m-17.131-10a.273.273,0,0,1,.006.028c1.07,4.989,8.431,8.751,17.124,8.751s16.055-3.762,17.125-8.751c0-.009,0-.019.007-.028s0-.016,0-.023a5.847,5.847,0,0,0,.118-1.034c0-.019,0-.037,0-.056l3.786-33.231c-3.513,4.962-11.721,8.385-21.044,8.385s-17.53-3.423-21.043-8.385l3.786,33.231c0,.019,0,.037,0,.056a5.816,5.816,0,0,0,.118,1.033c0,.007,0,.015,0,.023" transform="translate(-501.13 -398.147)" fill="#161917"/>
    <path id="패스_49" data-name="패스 49" d="M744.161,619.182c-9.519,0-17.638-3.537-20.821-8.512" transform="translate(-505.421 -424.511)" fill="#fff"/>
    <path id="패스_50" data-name="패스 50" d="M742.763,618.4c-9.538,0-17.91-3.45-21.327-8.79a.614.614,0,0,1,.178-.843.6.6,0,0,1,.833.18c3.152,4.925,11.316,8.234,20.315,8.234a.61.61,0,0,1,0,1.219" transform="translate(-504.023 -423.121)" fill="#2474ff"/>
    <path id="패스_51" data-name="패스 51" d="M836.4,610.671c-1.984,3.1-5.887,5.644-10.851,7.119" transform="translate(-576.835 -424.511)" fill="#fff"/>
    <path id="패스_52" data-name="패스 52" d="M824.148,617.009a.6.6,0,0,1-.578-.438.611.611,0,0,1,.409-.757c4.875-1.449,8.609-3.887,10.515-6.865a.6.6,0,0,1,.833-.18.613.613,0,0,1,.178.843c-2.062,3.223-6.035,5.842-11.187,7.373a.582.582,0,0,1-.17.025" transform="translate(-575.438 -423.121)" fill="#2474ff"/>
    <path id="패스_53" data-name="패스 53" d="M739.87,621.371c-9.2,0-17.039-4.135-18.284-9.631a.606.606,0,0,1-.033-.139l0-.03a6.977,6.977,0,0,1-.136-1.2l-4.21-36.948a.609.609,0,0,1,.5-.671.6.6,0,0,1,.689.468c1.387,6.256,10.622,10.974,21.48,10.974s20.093-4.718,21.481-10.974a.6.6,0,0,1,.688-.468.609.609,0,0,1,.5.671l-4.21,36.949a7.087,7.087,0,0,1-.136,1.2l0,.03a.614.614,0,0,1-.033.142c-1.247,5.5-9.083,9.628-18.284,9.628m-17.131-10a.273.273,0,0,1,.006.028c1.07,4.989,8.431,8.751,17.124,8.751s16.055-3.762,17.125-8.751c0-.009,0-.019.007-.028s0-.016,0-.023a5.847,5.847,0,0,0,.118-1.034c0-.019,0-.037,0-.056l3.786-33.231c-3.513,4.962-11.721,8.385-21.044,8.385s-17.53-3.423-21.043-8.385l3.786,33.231c0,.019,0,.037,0,.056a5.816,5.816,0,0,0,.118,1.033c0,.007,0,.015,0,.023" transform="translate(-501.13 -398.147)" fill="#2474ff"/>
    <path id="패스_54" data-name="패스 54" d="M695.783,329.844c1.338-.412,1.528-2.374.437-4.483a17.265,17.265,0,0,1-2.2-7.518c0-6.221,5.128-8.132,11.34-4.085,5.571,3.63,10.073,10.945,10.288,16.714.095,2.54-.628,4.411-1.918,5.511-1,.855-.815,2.935.47,4.923,2.629,4.068,4.3,8.586,4.369,12.537.142,7.689-5.886,10.425-13.4,6.066-7.736-4.488-14.065-14.6-14.065-22.387,0-3.982,1.9-6.423,4.679-7.28" transform="translate(-482.896 -216.63)" fill="#fff"/>
    <path id="패스_55" data-name="패스 55" d="M710.44,360.8a14.211,14.211,0,0,1-6.968-2.152c-7.922-4.6-14.367-14.876-14.367-22.916,0-4,1.861-6.862,5.106-7.863a.9.9,0,0,0,.583-.558,4.006,4.006,0,0,0-.5-3.059,17.719,17.719,0,0,1-2.27-7.8c0-2.887,1.061-5.063,2.989-6.126,2.385-1.317,5.767-.759,9.28,1.529,5.7,3.715,10.342,11.272,10.564,17.2.1,2.652-.639,4.727-2.132,6-.659.562-.62,2.258.586,4.123,2.808,4.344,4.395,8.911,4.467,12.859.067,3.611-1.186,6.372-3.526,7.774a7.321,7.321,0,0,1-3.807.984m-12.531-49.959a4.751,4.751,0,0,0-2.323.556c-1.523.84-2.361,2.636-2.361,5.056a16.523,16.523,0,0,0,2.133,7.235,5.123,5.123,0,0,1,.547,4.095,2.1,2.1,0,0,1-1.343,1.254c-2.742.846-4.252,3.224-4.252,6.7,0,7.65,6.173,17.456,13.762,21.858,3.721,2.159,7.206,2.587,9.562,1.176,1.951-1.168,2.993-3.548,2.935-6.7-.068-3.722-1.585-8.059-4.271-12.214-1.478-2.287-1.624-4.64-.354-5.723,1.2-1.023,1.789-2.759,1.7-5.022-.208-5.575-4.606-12.7-10.012-16.224a10.928,10.928,0,0,0-5.727-2.04m-3.522,17.612h0Z" transform="translate(-481.5 -215.238)" fill="#2474ff"/>
    <path id="패스_56" data-name="패스 56" d="M787.673,258.606c1.288-.44,1.45-2.355.393-4.422a22.151,22.151,0,0,1-2.774-9.561c0-3.773,1.745-6.14,4.278-7.113,1.2-.459,1.39-2.219.462-4.187a16,16,0,0,1-1.813-7.2c.269-5.573,4.969-7.326,10.643-3.984,6.049,3.564,10.981,11.477,10.981,17.578a8.005,8.005,0,0,1-1.308,5c-.729.909-.462,2.73.586,4.476a23.894,23.894,0,0,1,3.637,12.016c0,2.982-.7,5.319-2.156,6.7-.906.863-.728,2.817.457,4.712,3.181,5.091,4.922,10.643,4.845,15.574-.142,9.1-7.557,12.113-16.637,6.757-9.434-5.565-17.123-17.907-17.123-27.422,0-4.816,2.247-7.809,5.529-8.931" transform="translate(-546.509 -153.249)" fill="#fff"/>
    <path id="패스_57" data-name="패스 57" d="M806.245,296.836a17.509,17.509,0,0,1-8.68-2.73c-9.607-5.666-17.422-18.2-17.422-27.948,0-4.752,2.165-8.217,5.939-9.509a.892.892,0,0,0,.553-.556,4.024,4.024,0,0,0-.5-3.008,22.569,22.569,0,0,1-2.842-9.842c0-3.743,1.7-6.543,4.667-7.682a.916.916,0,0,0,.532-.557,3.82,3.82,0,0,0-.4-2.8,16.507,16.507,0,0,1-1.871-7.488c.125-2.594,1.186-4.567,2.986-5.556,2.216-1.217,5.336-.825,8.561,1.075,6.22,3.665,11.28,11.786,11.28,18.1a8.519,8.519,0,0,1-1.443,5.382c-.541.675-.274,2.263.633,3.776a24.6,24.6,0,0,1,3.725,12.332c0,3.214-.811,5.685-2.346,7.148-.581.553-.584,2.123.553,3.943a30,30,0,0,1,4.939,15.909c-.065,4.156-1.626,7.315-4.4,8.9a8.909,8.909,0,0,1-4.466,1.107m-19.97-39.61.193.578c-3.3,1.13-5.12,4.1-5.12,8.354,0,9.358,7.547,21.423,16.824,26.9,4.618,2.723,8.972,3.312,11.947,1.614,2.382-1.36,3.726-4.149,3.784-7.853a28.77,28.77,0,0,0-4.752-15.239c-1.343-2.15-1.492-4.4-.361-5.482,1.287-1.226,1.967-3.391,1.967-6.26a23.362,23.362,0,0,0-3.55-11.7c-1.219-2.032-1.431-4.064-.539-5.177a7.384,7.384,0,0,0,1.174-4.614c0-5.932-4.792-13.581-10.681-17.051-2.854-1.681-5.544-2.066-7.38-1.057-1.437.789-2.252,2.36-2.357,4.544a15.3,15.3,0,0,0,1.755,6.9,4.941,4.941,0,0,1,.43,3.776,2.122,2.122,0,0,1-1.222,1.243c-2.508.963-3.89,3.287-3.89,6.542a21.372,21.372,0,0,0,2.707,9.281,5.072,5.072,0,0,1,.549,4.025,2.092,2.092,0,0,1-1.284,1.255Z" transform="translate(-545.111 -151.868)" fill="#2474ff"/>
    <path id="패스_58" data-name="패스 58" d="M752.328,417.845a.6.6,0,0,1-.51-.284L737.68,394.88a17.9,17.9,0,0,1-2.992-9.1V363.029a.6.6,0,1,1,1.205,0v22.749a16.919,16.919,0,0,0,2.807,8.452l14.137,22.681a.614.614,0,0,1-.188.841.6.6,0,0,1-.321.094" transform="translate(-513.35 -251.938)" fill="#2474ff"/>
    <path id="패스_59" data-name="패스 59" d="M791.949,366.785a.606.606,0,0,1-.6-.61v-29c0-2.862,1.18-4.985,3.237-5.824l7.787-3.176c1.6-.653,2.482-2.32,2.482-4.693V263.207a.6.6,0,1,1,1.205,0v60.275c0,2.862-1.18,4.985-3.237,5.824l-7.787,3.176c-1.6.653-2.483,2.32-2.483,4.693v29a.606.606,0,0,1-.6.61" transform="translate(-552.939 -182.546)" fill="#2474ff"/>
    <path id="패스_60" data-name="패스 60" d="M320.44,484.052l-61.924,34.934a16.109,16.109,0,0,1-15.873-.013l-69.587-39.4a5.236,5.236,0,0,1,0-9.085l61.8-34.99a16.111,16.111,0,0,1,15.9,0l69.7,39.465a5.236,5.236,0,0,1-.007,9.089" transform="translate(-119.081 -301.282)" fill="#2474ff"/>
    <path id="패스_61" data-name="패스 61" d="M136.566,588.385l-2.782,1.724c-2.466,1.528-2.735,4.078-1.112,6.659a5.644,5.644,0,0,0-1.011.486c-.089.055-.174.112-.256.171a51.933,51.933,0,0,1-16.7,4.28c-7.913.427-20.147,1.218-22.181,2.478-2.986,1.85-12.538,4.035-9.682,8.422,3.866,5.941,8.091,7.356,14.112,6.833,3.363-.292,36.461-1.211,42.029-1.695,2.855-.248,4.808-1.454,5.143-3.276a8.851,8.851,0,0,0-.917-5.039h0l3.207-1.492a5.761,5.761,0,0,0,1.156-.538c.032-.02.061-.041.093-.062,5.091,2.2,10.87,2.531,14.032.572l4.434-2.748Z" transform="translate(-57.514 -409.019)" fill="#2474ff"/>
    <path id="패스_62" data-name="패스 62" d="M454.321,630.8h0a3.158,3.158,0,0,1-3.139-3.176V611.272h6.278v16.352a3.158,3.158,0,0,1-3.139,3.176" transform="translate(-315.255 -424.929)" fill="#fff"/>
    <path id="패스_63" data-name="패스 63" d="M543.2,581.592h0a3.158,3.158,0,0,1-3.139-3.176V562.064h6.278v16.352a3.158,3.158,0,0,1-3.139,3.176" transform="translate(-377.355 -390.722)" fill="#fff"/>
    <path id="패스_64" data-name="패스 64" d="M274.56,465.147h0a3.158,3.158,0,0,1-3.139-3.176V445.619H277.7V461.97a3.158,3.158,0,0,1-3.139,3.176" transform="translate(-189.651 -309.775)" fill="#4034ac"/>
    <path id="패스_65" data-name="패스 65" d="M452.923,630.019a3.768,3.768,0,0,1-3.741-3.786V609.882a.606.606,0,0,1,.6-.61h6.278a.606.606,0,0,1,.6.61v16.352a3.768,3.768,0,0,1-3.741,3.786m-2.536-19.528v15.742a2.537,2.537,0,1,0,5.073,0V610.491Z" transform="translate(-313.858 -423.539)" fill="#2474ff"/>
    <path id="패스_66" data-name="패스 66" d="M541.8,580.81a3.768,3.768,0,0,1-3.742-3.786V560.673a.606.606,0,0,1,.6-.61h6.278a.606.606,0,0,1,.6.61v16.352a3.768,3.768,0,0,1-3.741,3.786m-2.537-19.528v15.742a2.537,2.537,0,1,0,5.073,0V561.282Z" transform="translate(-375.958 -389.331)" fill="#2474ff"/>
    <path id="패스_67" data-name="패스 67" d="M184.286,513.574a3.768,3.768,0,0,1-3.741-3.786V493.437a.606.606,0,0,1,.6-.61h6.278a.606.606,0,0,1,.6.61v16.352a3.768,3.768,0,0,1-3.741,3.786m-2.536-19.528v15.742a2.537,2.537,0,1,0,5.073,0V494.046Z" transform="translate(-126.153 -342.592)" fill="#2474ff"/>
    <path id="패스_68" data-name="패스 68" d="M273.162,464.366a3.768,3.768,0,0,1-3.741-3.786V444.229a.606.606,0,0,1,.6-.61H276.3a.606.606,0,0,1,.6.61V460.58a3.768,3.768,0,0,1-3.742,3.786m-2.536-19.528V460.58a2.537,2.537,0,1,0,5.073,0V444.838Z" transform="translate(-188.253 -308.384)" fill="#161917"/>
    <path id="패스_69" data-name="패스 69" d="M226.766,174.656l-.006.028a7.467,7.467,0,0,0-1.74-.566,12.2,12.2,0,0,0-14.311,10.076l-8.126,49.266a8.995,8.995,0,0,1-4.429,6.371l-25.648,14.522a20.8,20.8,0,0,0-10.495,18.111,7.793,7.793,0,0,0,4.769,7.235l70.08,39.68,46.464-35.736,14.661-68.66Z" transform="translate(-113.203 -120.884)" fill="#fff"/>
    <path id="패스_70" data-name="패스 70" d="M444.566,315.229l-8.126,49.266a8.995,8.995,0,0,1-4.428,6.37l-25.649,14.522A20.8,20.8,0,0,0,395.868,403.5a7.746,7.746,0,0,0,11.527,6.839L446.311,388.3a16.751,16.751,0,0,0,8.247-11.864l10.319-62.561a7.6,7.6,0,0,0-6-8.726h0a12.194,12.194,0,0,0-14.311,10.076" transform="translate(-276.606 -211.974)" fill="#fff"/>
    <path id="패스_71" data-name="패스 71" d="M235.464,318.592a.6.6,0,0,1-.294-.078l-70.051-39.664a8.443,8.443,0,0,1-5.107-7.784,21.427,21.427,0,0,1,10.8-18.643L196.464,237.9a8.345,8.345,0,0,0,4.128-5.939l8.126-49.265a12.852,12.852,0,0,1,5.308-8.489,12.563,12.563,0,0,1,9.711-2.086,8.08,8.08,0,0,1,1.718.538.536.536,0,0,1,.208.067l71.221,40.326a.613.613,0,0,1,.232.83.6.6,0,0,1-.82.234l-71.065-40.238a.505.505,0,0,1-.12-.039,6.91,6.91,0,0,0-1.6-.521,11.381,11.381,0,0,0-8.8,1.889,11.641,11.641,0,0,0-4.807,7.688l-8.126,49.265a9.557,9.557,0,0,1-4.728,6.8L171.4,253.488a20.2,20.2,0,0,0-10.186,17.579,7.226,7.226,0,0,0,4.4,6.672.634.634,0,0,1,.061.031l70.08,39.68a.614.614,0,0,1,.231.83.6.6,0,0,1-.526.312" transform="translate(-111.806 -119.488)" fill="#2474ff"/>
    <path id="패스_72" data-name="패스 72" d="M402.213,410.563a8.25,8.25,0,0,1-4.22-1.172,8.387,8.387,0,0,1-4.126-7.287,21.427,21.427,0,0,1,10.8-18.643l25.648-14.522A8.345,8.345,0,0,0,434.447,363l8.126-49.266.594.1-.594-.1a12.854,12.854,0,0,1,5.308-8.489,12.566,12.566,0,0,1,9.711-2.085,8.164,8.164,0,0,1,6.481,9.425l-10.319,62.561a17.278,17.278,0,0,1-8.547,12.3l-38.915,22.034a8.259,8.259,0,0,1-4.078,1.088m52.94-106.42a11.387,11.387,0,0,0-6.584,2.1,11.641,11.641,0,0,0-4.808,7.688L435.636,363.2a9.558,9.558,0,0,1-4.728,6.8l-25.649,14.522A20.2,20.2,0,0,0,395.072,402.1a7.177,7.177,0,0,0,3.53,6.235,7,7,0,0,0,7.1.072l38.915-22.034a16.065,16.065,0,0,0,7.947-11.432l10.319-62.561a6.953,6.953,0,0,0-5.519-8.027,11.6,11.6,0,0,0-2.212-.214" transform="translate(-275.207 -210.579)" fill="#2474ff"/>
    <path id="패스_73" data-name="패스 73" d="M269.382,207.785l-1.215-2.683a22.9,22.9,0,0,0,6.516-10.754,3.121,3.121,0,0,0,.274.17l.038.021a2.883,2.883,0,0,0,.3.136l.058.022a2.646,2.646,0,0,0,.307.092l.052.011a2.525,2.525,0,0,0,.333.051,2.606,2.606,0,0,0,.381,0l-35.346-20.013-.006.028a7.456,7.456,0,0,0-1.74-.565c-.322-.063-.643-.108-.963-.144a11.728,11.728,0,0,0,.742,4.744l.026-.064a26.4,26.4,0,0,0-1.3,8.237,24.185,24.185,0,0,0,7.737,18.217,14.118,14.118,0,0,0-1.475,1.426,8.751,8.751,0,0,0-1.407,1.588l-12.556,18.209a13.032,13.032,0,0,0-1.905-.139c-4.322,0-7.825,2.074-7.825,4.633v1.085l-3.465,1.294-.042.255a9,9,0,0,1-4.429,6.37l-25.648,14.522a20.522,20.522,0,0,0-4.325,3.274c.165-.038.329-.074.495-.114a1.768,1.768,0,0,0-.425,1.676,1.747,1.747,0,0,0,2.1,1.252c.688-.167,1.382-.355,2.078-.557a1.63,1.63,0,0,0-.413,1.628,1.6,1.6,0,0,0,1.965,1.091c1.2-.343,2.489-.732,3.753-1.166l5.6,5.115a8.792,8.792,0,0,0,2.009,1.438c-.024.282-.037.566-.037.854a9.732,9.732,0,0,0,1.612,5.382l-8.214,12.227,26.156,15.461,7.875-11.722L250.8,288.92a1.348,1.348,0,0,0,.157,0c.155.006,0,.019.155.006a15.886,15.886,0,0,0,14.063-15.2v-3.046a42.376,42.376,0,0,0,4.1-5.911l1.781.186h0c.2.022.407.034.613.041l.164,0c.047,0,.093,0,.14,0,.133,0,.264,0,.395-.01l.151-.009c.16-.01.319-.025.477-.044l.192-.025c.183-.026.365-.056.544-.094.034-.007.067-.016.1-.023.164-.036.326-.078.486-.123l.131-.038c.186-.056.371-.118.551-.186l.059-.024c.174-.067.346-.141.515-.218l.07-.032q.273-.129.534-.276l.02-.011h0a8.777,8.777,0,0,0,4.439-7.652V228.1c0-6.933.262-13.585-11.243-20.318" transform="translate(-127.512 -121.066)" fill="#2474ff"/>
    <path id="패스_335" data-name="패스 335" d="M.062.1,28.094-.055,28,17.334l-28.031.155Z" transform="translate(89.156 109.811) rotate(-55.095)" fill="#fff"/>
    <path id="패스_74" data-name="패스 74" d="M359.738,286.017a8.6,8.6,0,0,1-12.058,2.172,8.83,8.83,0,0,1-2.147-12.2,8.6,8.6,0,0,1,12.059-2.172,8.829,8.829,0,0,1,2.147,12.2" transform="translate(-240.346 -189.248)" fill="#fff"/>
    <path id="패스_75" data-name="패스 75" d="M306.919,361.719a8.6,8.6,0,0,1-12.058,2.172,8.83,8.83,0,0,1-2.147-12.2,8.6,8.6,0,0,1,12.059-2.172,8.829,8.829,0,0,1,2.147,12.2" transform="translate(-203.44 -241.873)" fill="#fff"/>
    <path id="패스_76" data-name="패스 76" d="M294.931,306.836a.6.6,0,0,1-.344-.109.615.615,0,0,1-.149-.849L310.35,282.8a.6.6,0,0,1,.839-.151.614.614,0,0,1,.149.849l-15.913,23.078a.6.6,0,0,1-.495.261" transform="translate(-205.657 -196.408)" fill="#2474ff"/>
    <path id="패스_77" data-name="패스 77" d="M342.082,339.735a.6.6,0,0,1-.344-.109.615.615,0,0,1-.149-.849L357.5,315.7a.6.6,0,0,1,.839-.151.615.615,0,0,1,.149.849l-15.913,23.078a.6.6,0,0,1-.495.261" transform="translate(-238.603 -219.279)" fill="#161917"/>
    <path id="패스_78" data-name="패스 78" d="M361.955,285.233a.6.6,0,0,1-.344-.109.615.615,0,0,1-.149-.849,8.224,8.224,0,0,0-2-11.352,8,8,0,0,0-11.219,2.021.6.6,0,0,1-.839.151.614.614,0,0,1-.149-.849,9.2,9.2,0,0,1,12.9-2.324,9.445,9.445,0,0,1,2.3,13.051.6.6,0,0,1-.495.261" transform="translate(-242.563 -187.854)" fill="#161917"/>
    <path id="패스_79" data-name="패스 79" d="M298.4,373.24a9.121,9.121,0,0,1-5.281-1.689,9.444,9.444,0,0,1-2.3-13.051.6.6,0,0,1,.839-.151.614.614,0,0,1,.149.849,8.225,8.225,0,0,0,2,11.353,8,8,0,0,0,11.219-2.021.6.6,0,0,1,.839-.151.614.614,0,0,1,.149.849,9.237,9.237,0,0,1-7.616,4.012" transform="translate(-202.038 -249.033)" fill="#161917"/>
    <path id="패스_80" data-name="패스 80" d="M210.336,361.108l29.815-11.138,6.389,16.291L216.725,377.4Z" transform="translate(-146.968 -243.284)" fill="#fff"/>
    <path id="패스_81" data-name="패스 81" d="M298.332,350.627a7.993,7.993,0,0,1,10.417,4.552,8.15,8.15,0,0,1-4.5,10.541,7.992,7.992,0,0,1-10.417-4.552,8.151,8.151,0,0,1,4.5-10.541" transform="translate(-204.914 -243.341)" fill="#fff"/>
    <path id="패스_82" data-name="패스 82" d="M215.327,378.189a.6.6,0,0,1-.56-.385l-6.389-16.291a.617.617,0,0,1,.01-.473.606.606,0,0,1,.342-.323L236.7,350.266a.6.6,0,0,1,.774.361.612.612,0,0,1-.357.783l-27.393,10.233L215.67,376.8l29.263-10.932a.6.6,0,0,1,.774.361.611.611,0,0,1-.356.783L215.536,378.15a.59.59,0,0,1-.208.038" transform="translate(-145.571 -243.463)" fill="#2474ff"/>
    <path id="패스_83" data-name="패스 83" d="M329.111,384.066a.6.6,0,0,1-.56-.385.612.612,0,0,1,.338-.791,8.115,8.115,0,0,0,5.088-7.575.606.606,0,0,1,.6-.609h0a.606.606,0,0,1,.6.61,9.328,9.328,0,0,1-5.849,8.707.594.594,0,0,1-.222.043" transform="translate(-229.539 -260.478)" fill="#161917"/>
    <path id="패스_84" data-name="패스 84" d="M380.753,456.13l12.962,13.116V456.13Z" transform="translate(-266.044 -317.081)" fill="#fff"/>
    <path id="패스_85" data-name="패스 85" d="M363.651,469.246a12.963,12.963,0,1,1-12.962-13.116,13.04,13.04,0,0,1,12.962,13.116" transform="translate(-235.981 -317.081)" fill="#fff"/>
    <path id="패스_86" data-name="패스 86" d="M174.6,391.315a11.988,11.988,0,0,1-15.469,7.163,12.214,12.214,0,0,1-7.079-15.653,11.989,11.989,0,0,1,15.469-7.163,12.214,12.214,0,0,1,7.079,15.652" transform="translate(-105.712 -260.61)" fill="#a1a6ee"/>
    <path id="패스_87" data-name="패스 87" d="M285.582,432.611a11.989,11.989,0,0,1-15.469,7.163,12.214,12.214,0,0,1-7.079-15.653,11.989,11.989,0,0,1,15.469-7.163,12.214,12.214,0,0,1,7.079,15.652" transform="translate(-183.26 -289.317)" fill="#fff"/>
    <path id="패스_336" data-name="패스 336" d="M.09.06,24.4-.033l-.138,35.727-24.309.093Z" transform="translate(53.329 137.931) rotate(-69.59)" fill="#fff"/>
    <path id="패스_88" data-name="패스 88" d="M157.737,397.7a.592.592,0,0,1-.21-.039,12.841,12.841,0,0,1-7.434-16.437,12.6,12.6,0,0,1,16.244-7.522.612.612,0,0,1,.355.784.6.6,0,0,1-.775.358,11.4,11.4,0,0,0-14.694,6.8,11.616,11.616,0,0,0,6.725,14.869.612.612,0,0,1,.355.784.6.6,0,0,1-.565.4" transform="translate(-104.321 -259.225)" fill="#161917"/>
    <path id="패스_89" data-name="패스 89" d="M291.094,441.514a12.5,12.5,0,0,1-4.411-.809.612.612,0,0,1-.355-.784.6.6,0,0,1,.775-.359,11.23,11.23,0,0,0,8.74-.323,11.434,11.434,0,0,0,5.954-6.482,11.616,11.616,0,0,0-6.724-14.868.611.611,0,0,1-.355-.784.6.6,0,0,1,.775-.359,12.84,12.84,0,0,1,7.433,16.436,12.639,12.639,0,0,1-6.582,7.165,12.468,12.468,0,0,1-5.25,1.166" transform="translate(-200.04 -289.676)" fill="#161917"/>
    <path id="패스_90" data-name="패스 90" d="M209.345,412.036a.593.593,0,0,1-.21-.039L175.7,399.408a.611.611,0,0,1-.355-.784l8.39-22.816a.6.6,0,0,1,.775-.359l33.436,12.589a.612.612,0,0,1,.355.784.6.6,0,0,1-.775.359l-32.871-12.376-7.969,21.673,32.871,12.376a.612.612,0,0,1,.355.784.6.6,0,0,1-.565.4" transform="translate(-122.492 -260.969)" fill="#2474ff"/>
    <path id="패스_91" data-name="패스 91" d="M170.1,587.29a6.989,6.989,0,0,1-1.816-9.638,6.807,6.807,0,0,1,9.525-1.837,6.989,6.989,0,0,1,1.816,9.638,6.806,6.806,0,0,1-9.525,1.837" transform="translate(-116.755 -399.447)" fill="#ffd4ce"/>
    <path id="패스_92" data-name="패스 92" d="M172.551,587.7a7.355,7.355,0,0,1-4.182-1.3,7.612,7.612,0,0,1-1.975-10.485,7.4,7.4,0,0,1,10.362-2A7.612,7.612,0,0,1,178.73,584.4a7.433,7.433,0,0,1-6.18,3.3m-3.5-2.312a6.216,6.216,0,0,0,8.687-1.676,6.382,6.382,0,0,0-1.656-8.791,6.208,6.208,0,0,0-8.687,1.675,6.383,6.383,0,0,0,1.656,8.791" transform="translate(-115.364 -398.052)" fill="#161917"/>
    <path id="패스_93" data-name="패스 93" d="M142.82,600.617a15.9,15.9,0,0,0,8.4-6.941l3.11-3.8-10.426-8.9a44.826,44.826,0,0,1-13,11.62s8.423-1.468,11.918,8.019" transform="translate(-91.465 -403.87)" fill="#fff"/>
    <path id="패스_94" data-name="패스 94" d="M141.424,599.838a.6.6,0,0,1-.565-.4c-3.272-8.88-10.928-7.687-11.253-7.631a.6.6,0,0,1-.668-.4.612.612,0,0,1,.267-.734,44.082,44.082,0,0,0,12.826-11.462.6.6,0,0,1,.867-.1l10.426,8.9a.615.615,0,0,1,.076.855l-3.082,3.765a16.371,16.371,0,0,1-8.732,7.174.59.59,0,0,1-.163.023m-9.731-9.265c2.819.244,7.543,1.638,10.081,7.886a15.748,15.748,0,0,0,7.538-6.489.6.6,0,0,1,.051-.072l2.729-3.334-9.49-8.1a45.723,45.723,0,0,1-10.908,10.109" transform="translate(-90.069 -402.481)" fill="#2474ff"/>
    <path id="패스_95" data-name="패스 95" d="M75.661,628.548a6.989,6.989,0,0,0,1.816,9.638c3.131,2.154,13.087,3.631,17.38,1.2l13.926-7.885a7.27,7.27,0,0,0,3.666-5.567,15.973,15.973,0,0,0-.654-5.946,15.9,15.9,0,0,1-8.4,6.941c-3.5-9.487-11.918-8.019-11.918-8.019-5.641,2.873-14.363,7.478-15.814,9.638" transform="translate(-52.037 -430.182)" fill="#fff"/>
    <path id="패스_96" data-name="패스 96" d="M87.037,639.891c-4.391,0-9.187-1.12-11.29-2.567a7.612,7.612,0,0,1-1.975-10.485c1.163-1.731,6.26-4.857,16.041-9.839a.593.593,0,0,1,.169-.056c.087-.015,8.619-1.386,12.37,7.851a15.748,15.748,0,0,0,7.538-6.489.6.6,0,0,1,1.1.152,16.5,16.5,0,0,1,.673,6.172,7.881,7.881,0,0,1-3.972,6.037L93.76,638.553a14.243,14.243,0,0,1-6.722,1.339M74.27,627.182l.5.343a6.383,6.383,0,0,0,1.656,8.791c2.971,2.044,12.737,3.443,16.747,1.173L107.1,629.6a6.659,6.659,0,0,0,3.361-5.1,13.965,13.965,0,0,0-.308-4.395,16.188,16.188,0,0,1-7.987,6.04.6.6,0,0,1-.727-.374c-3.128-8.49-10.262-7.771-11.168-7.644-9.274,4.727-14.489,7.887-15.5,9.392Z" transform="translate(-50.647 -428.817)" fill="#2474ff"/>
    <rect id="사각형_24" data-name="사각형 24" width="35.675" height="24.344" transform="translate(78.1 140.937)" fill="#fff"/>
    <path id="패스_97" data-name="패스 97" d="M243.368,474.5a12.03,12.03,0,1,1-12.029-12.172A12.1,12.1,0,0,1,243.368,474.5" transform="translate(-153.239 -321.387)" fill="#a1a6ee"/>
    <path id="패스_98" data-name="패스 98" d="M361.785,474.5a12.03,12.03,0,1,1-12.029-12.172A12.1,12.1,0,0,1,361.785,474.5" transform="translate(-235.981 -321.387)" fill="#fff"/>
    <path id="패스_99" data-name="패스 99" d="M293.517,461.542H257.842a.61.61,0,0,1,0-1.219h35.675a.61.61,0,0,1,0,1.219" transform="translate(-179.741 -319.996)" fill="#2474ff"/>
    <path id="패스_100" data-name="패스 100" d="M294.449,541.4H257.841a.61.61,0,0,1,0-1.219h36.609a.61.61,0,0,1,0,1.219" transform="translate(-179.74 -375.51)" fill="#2474ff"/>
    <path id="패스_101" data-name="패스 101" d="M229.941,485.887a12.783,12.783,0,0,1,0-25.563.61.61,0,0,1,0,1.219,11.563,11.563,0,0,0,0,23.125.61.61,0,0,1,0,1.219" transform="translate(-151.841 -319.997)" fill="#161917"/>
    <path id="패스_102" data-name="패스 102" d="M207.534,493.491l-19.9-13.686L172.526,502.3a8.966,8.966,0,0,0,2.329,12.364l5.348,3.679a8.732,8.732,0,0,0,12.219-2.357Z" transform="translate(-119.486 -333.539)" fill="#fff"/>
    <path id="패스_103" data-name="패스 103" d="M224.573,484.559a12.262,12.262,0,0,1-3.186-16.909,11.941,11.941,0,0,1,16.711-3.224,12.262,12.262,0,0,1,3.186,16.909,11.942,11.942,0,0,1-16.711,3.223" transform="translate(-153.236 -321.384)" fill="#fff"/>
    <path id="패스_104" data-name="패스 104" d="M183.728,519.1a9.255,9.255,0,0,1-5.264-1.648l-5.348-3.679a9.58,9.58,0,0,1-2.489-13.211l15.111-22.494a.6.6,0,0,1,.837-.162.614.614,0,0,1,.159.847l-15.111,22.494a8.362,8.362,0,0,0,2.17,11.517l5.348,3.679a8.133,8.133,0,0,0,11.382-2.2l15.111-22.494a.6.6,0,0,1,.837-.162.614.614,0,0,1,.159.847L191.52,514.937a9.375,9.375,0,0,1-7.792,4.166" transform="translate(-118.085 -332.149)" fill="#2474ff"/>
    <path id="패스_105" data-name="패스 105" d="M224.819,466.87a.6.6,0,0,1-.338-.105.614.614,0,0,1-.159-.847,12.592,12.592,0,0,1,10.446-5.6h0a.61.61,0,0,1,0,1.219,11.391,11.391,0,0,0-9.45,5.063.6.6,0,0,1-.5.267" transform="translate(-156.667 -319.994)" fill="#161917"/>
    <path id="패스_106" data-name="패스 106" d="M392.317,468.465a.606.606,0,0,1-.6-.61V455.349h-12.36a.61.61,0,0,1,0-1.219h12.962a.606.606,0,0,1,.6.61v13.116a.606.606,0,0,1-.6.61" transform="translate(-264.646 -315.691)" fill="#2474ff"/>
    <path id="패스_107" data-name="패스 107" d="M379.356,511.491a.61.61,0,0,1,0-1.219,12.448,12.448,0,0,0,12.36-12.506.6.6,0,1,1,1.205,0,13.661,13.661,0,0,1-13.565,13.726" transform="translate(-264.647 -345.601)" fill="#2474ff"/>
    <path id="패스_108" data-name="패스 108" d="M316.139,311.878c0,13.3,14.542,23.952,32.428,21.478,9.459-11.222,15.455-34.454,15.455-42.579s.364-15.863-18.275-23.8c-17.249-7.344-23.1,7.879-23.1,15.6v12.7c0,7.236-6.5,16.6-6.5,16.6" transform="translate(-220.896 -184.237)" fill="#fff"/>
    <path id="패스_109" data-name="패스 109" d="M341.968,332.91c-7.931,0-15.233-2.534-20.572-7.248a20.259,20.259,0,0,1-7.256-15.2.616.616,0,0,1,.109-.351c.064-.092,6.394-9.291,6.394-16.248v-12.7c0-5.191,2.4-12.387,7.657-15.922,4.334-2.913,9.813-2.992,16.284-.237,8.459,3.6,13.632,7.368,16.282,11.856,2.369,4.012,2.365,8.1,2.362,12.047v.457c0,8.4-6.075,31.674-15.6,42.974a.6.6,0,0,1-.377.208,38.556,38.556,0,0,1-5.284.368M315.346,310.65a19.084,19.084,0,0,0,6.842,14.094c6.2,5.471,15.178,7.878,24.673,6.622,9.263-11.156,15.163-33.8,15.163-42.005V288.9c.007-7.79.013-15.149-17.906-22.778-6.077-2.587-11.173-2.544-15.15.129-4.89,3.287-7.118,10.031-7.118,14.907v12.7c0,6.906-5.608,15.467-6.5,16.787" transform="translate(-219.5 -182.82)" fill="#2474ff"/>
    <rect id="사각형_25" data-name="사각형 25" width="14.689" height="17.381" transform="translate(114.89 70.72)" fill="#ffd4ce"/>
    <path id="패스_110" data-name="패스 110" d="M396.075,270.33a7.39,7.39,0,1,1-7.389-7.477,7.433,7.433,0,0,1,7.389,7.477" transform="translate(-266.424 -182.724)" fill="#fff"/>
    <path id="패스_111" data-name="패스 111" d="M396.075,214.938a7.39,7.39,0,1,1-7.389-7.477,7.433,7.433,0,0,1,7.389,7.477" transform="translate(-266.424 -144.218)" fill="#ffd4ce"/>
    <path id="패스_112" data-name="패스 112" d="M428.714,248.588h0a.606.606,0,0,1-.6-.612l.072-17.381a.606.606,0,0,1,.6-.607h0a.606.606,0,0,1,.6.612l-.072,17.381a.606.606,0,0,1-.6.607" transform="translate(-299.135 -159.878)"/>
    <path id="패스_113" data-name="패스 113" d="M379.958,248.588a.606.606,0,0,1-.6-.61V230.6a.6.6,0,1,1,1.205,0v17.381a.606.606,0,0,1-.6.61" transform="translate(-265.067 -159.878)"/>
    <path id="패스_114" data-name="패스 114" d="M387.288,294.077a8.049,8.049,0,0,1-7.992-8.087.6.6,0,1,1,1.205,0,6.787,6.787,0,1,0,13.573,0,.6.6,0,1,1,1.205,0,8.049,8.049,0,0,1-7.992,8.087" transform="translate(-265.026 -198.384)"/>
    <path id="패스_115" data-name="패스 115" d="M394.677,214.157a.606.606,0,0,1-.6-.61,6.787,6.787,0,1,0-13.574,0,.6.6,0,1,1-1.205,0,7.992,7.992,0,1,1,15.984,0,.606.606,0,0,1-.6.61" transform="translate(-265.026 -142.827)"/>
    <path id="패스_116" data-name="패스 116" d="M400.791,266.677c-2.562,5.709-8.108,8.711-12.745,11.658l4.428,6.447c5.584-3.151,9.825-6.97,10.852-12.51Z" transform="translate(-271.14 -185.382)" fill="#fff"/>
    <path id="패스_117" data-name="패스 117" d="M391.076,284a.6.6,0,0,1-.495-.262l-4.428-6.447a.617.617,0,0,1-.1-.47.61.61,0,0,1,.27-.394c.469-.3.947-.6,1.431-.9,4.355-2.719,8.859-5.531,11.086-10.495a.6.6,0,0,1,.547-.358h0a.6.6,0,0,1,.548.356l2.534,5.594a.617.617,0,0,1,.045.366c-.937,5.058-4.48,9.167-11.15,12.931a.6.6,0,0,1-.293.077m-3.572-6.879,3.754,5.465c5.944-3.45,9.145-7.159,10.042-11.631l-1.932-4.264c-2.53,4.6-7,7.392-10.976,9.875l-.887.555" transform="translate(-269.743 -183.992)" fill="#2474ff"/>
    <path id="패스_118" data-name="패스 118" d="M373.3,269.168c-1.986-4.055-2.448-9.468-2.015-15.678l-3.692,4.533c-1.3,5.432-.5,10.067,1.092,14.768Z" transform="translate(-256.398 -176.215)" fill="#fff"/>
    <path id="패스_119" data-name="패스 119" d="M367.274,272.01a.588.588,0,0,1-.172-.026.605.605,0,0,1-.4-.386c-1.939-5.721-2.271-10.24-1.108-15.11a.618.618,0,0,1,.121-.245l3.693-4.533a.6.6,0,0,1,.688-.178.609.609,0,0,1,.377.609c-.467,6.7.172,11.726,1.954,15.364a.614.614,0,0,1-.171.752l-4.615,3.623a.6.6,0,0,1-.37.128m-.538-15.1a24.105,24.105,0,0,0,.841,13.48l3.56-2.795c-1.553-3.431-2.2-7.923-1.967-13.673Z" transform="translate(-254.984 -174.824)" fill="#2474ff"/>
    <path id="패스_120" data-name="패스 120" d="M174.6,391.315a11.988,11.988,0,0,1-15.469,7.163,12.214,12.214,0,0,1-7.079-15.653,11.989,11.989,0,0,1,15.469-7.163,12.214,12.214,0,0,1,7.079,15.652" transform="translate(-105.712 -260.61)" fill="#fff"/>
    <path id="패스_121" data-name="패스 121" d="M180.342,385.789,163.833,403.5l10.791,9.854a8.723,8.723,0,0,0,12.434-.367l4.438-4.76a8.975,8.975,0,0,0-.363-12.581Z" transform="translate(-114.475 -268.183)" fill="#fff"/>
    <path id="패스_122" data-name="패스 122" d="M179.255,427.949a9.274,9.274,0,0,1-6.442-2.592l-10.781-9.846a.614.614,0,0,1-.044-.861.6.6,0,0,1,.851-.044l10.792,9.855a8.126,8.126,0,0,0,11.592-.333l4.437-4.76a8.36,8.36,0,0,0-.338-11.719l-4.562-4.166a.614.614,0,0,1-.044-.861.6.6,0,0,1,.851-.044l4.572,4.175a9.589,9.589,0,0,1,.4,13.452l-4.437,4.76a9.289,9.289,0,0,1-6.563,2.98c-.094,0-.188,0-.281,0" transform="translate(-113.078 -279.745)" fill="#2474ff"/>
    <path id="패스_123" data-name="패스 123" d="M153.679,395.151a.6.6,0,0,1-.413-.166,12.889,12.889,0,0,1-.521-18.068,12.528,12.528,0,0,1,17.856-.527.615.615,0,0,1,.025.862.6.6,0,0,1-.852.025,11.332,11.332,0,0,0-16.153.477,11.659,11.659,0,0,0,.471,16.345.615.615,0,0,1,.025.862.6.6,0,0,1-.439.191" transform="translate(-104.322 -259.228)" fill="#2474ff"/>
    <path id="패스_124" data-name="패스 124" d="M211.874,441.055a6.989,6.989,0,0,1-1.816-9.638,6.806,6.806,0,0,1,9.525-1.837,6.989,6.989,0,0,1,1.816,9.638,6.806,6.806,0,0,1-9.525,1.837" transform="translate(-145.946 -297.79)" fill="#fff"/>
    <path id="패스_125" data-name="패스 125" d="M225.594,430.52l13.088,6.286-10.541,11.222-9.3-5.485Z" transform="translate(-152.909 -299.278)" fill="#fff"/>
    <path id="패스_126" data-name="패스 126" d="M210.483,440.251a.6.6,0,0,1-.338-.105,7.612,7.612,0,0,1-1.975-10.484,7.371,7.371,0,0,1,9.326-2.6.613.613,0,0,1,.29.811.6.6,0,0,1-.8.293,6.181,6.181,0,0,0-7.818,2.178,6.382,6.382,0,0,0,1.656,8.79.614.614,0,0,1,.16.847.6.6,0,0,1-.5.267" transform="translate(-144.555 -296.376)" fill="#2474ff"/>
    <path id="패스_127" data-name="패스 127" d="M226.743,447.246a.6.6,0,0,1-.3-.083l-9.3-5.485a.613.613,0,0,1-.217-.834.6.6,0,0,1,.824-.22l8.891,5.242,9.64-10.263-12.336-5.925a.613.613,0,0,1-.286-.812.6.6,0,0,1,.8-.289l13.088,6.286a.607.607,0,0,1,.334.439.614.614,0,0,1-.156.531L227.18,447.057a.6.6,0,0,1-.437.19" transform="translate(-151.512 -297.887)" fill="#2474ff"/>
    <path id="패스_128" data-name="패스 128" d="M333.032,163.376c0,12.477,8.475,22.592,18.93,22.592s18.93-10.115,18.93-22.592-8.475-22.592-18.93-22.592-18.93,10.115-18.93,22.592" transform="translate(-232.7 -97.867)" fill="#fff"/>
    <path id="패스_129" data-name="패스 129" d="M350.565,185.187c-10.77,0-19.533-10.408-19.533-23.2s8.762-23.2,19.533-23.2,19.533,10.408,19.533,23.2-8.762,23.2-19.533,23.2m0-45.184c-10.106,0-18.328,9.861-18.328,21.982s8.222,21.983,18.328,21.983,18.328-9.861,18.328-21.983S360.671,140,350.565,140" transform="translate(-231.303 -96.477)" fill="#2474ff"/>
    <path id="패스_130" data-name="패스 130" d="M362.552,222.921a.587.587,0,0,1-.1-.009,10.338,10.338,0,0,1-3.036-.979,2.3,2.3,0,0,1-1.16-1.436,2.4,2.4,0,0,1,.248-1.87l2.382-3.988a.6.6,0,0,1,.827-.206.614.614,0,0,1,.2.837l-2.382,3.987a1.161,1.161,0,0,0-.12.906,1.094,1.094,0,0,0,.551.684,9.17,9.17,0,0,0,2.689.862.61.61,0,0,1-.1,1.211" transform="translate(-250.261 -149.003)" fill="#2474ff"/>
    <path id="패스_131" data-name="패스 131" d="M360.522,249.706a5.192,5.192,0,0,1-.7-.048,6.129,6.129,0,0,1-4.605-3.464.613.613,0,0,1,.3-.807.6.6,0,0,1,.8.305,4.878,4.878,0,0,0,3.667,2.757,3.912,3.912,0,0,0,3.685-1.582.6.6,0,0,1,.848-.08.614.614,0,0,1,.08.858,5.215,5.215,0,0,1-4.074,2.06" transform="translate(-248.164 -170.545)" fill="#2474ff"/>
    <path id="패스_132" data-name="패스 132" d="M389.6,213.681c0,.933.32,1.688.715,1.688s.715-.756.715-1.688-.32-1.688-.715-1.688-.715.756-.715,1.688" transform="translate(-272.228 -147.368)" fill="#2474ff"/>
    <path id="패스_133" data-name="패스 133" d="M389.62,214.979c-.667,0-1.016-1-1.016-1.993s.349-1.993,1.016-1.993,1.016,1,1.016,1.993-.349,1.993-1.016,1.993m0-3.377c-.107,0-.414.476-.414,1.383s.307,1.384.414,1.384.413-.476.413-1.384-.307-1.383-.413-1.383" transform="translate(-271.53 -146.673)" fill="#2474ff"/>
    <path id="패스_134" data-name="패스 134" d="M350.818,198.467c0,.933.32,1.688.715,1.688s.715-.756.715-1.688-.32-1.688-.715-1.688-.715.756-.715,1.688" transform="translate(-245.128 -136.792)" fill="#2474ff"/>
    <path id="패스_135" data-name="패스 135" d="M350.834,199.764c-.667,0-1.016-1-1.016-1.993s.349-1.993,1.016-1.993,1.016,1,1.016,1.993-.349,1.993-1.016,1.993m0-3.377c-.106,0-.414.476-.414,1.384s.308,1.383.414,1.383.414-.476.414-1.383-.308-1.384-.414-1.384" transform="translate(-244.429 -136.096)" fill="#2474ff"/>
    <path id="패스_136" data-name="패스 136" d="M349.343,186.219a.6.6,0,0,1-.5-.271,4.356,4.356,0,0,0-4.989-2.055.6.6,0,0,1-.758-.394.611.611,0,0,1,.389-.767,5.529,5.529,0,0,1,6.359,2.538.614.614,0,0,1-.166.846.593.593,0,0,1-.334.1" transform="translate(-239.711 -126.86)" fill="#2474ff"/>
    <path id="패스_137" data-name="패스 137" d="M389.211,202.6a.6.6,0,0,1-.5-.271,4.357,4.357,0,0,0-4.989-2.055.6.6,0,0,1-.758-.394.611.611,0,0,1,.389-.767,5.529,5.529,0,0,1,6.359,2.538.614.614,0,0,1-.166.846.592.592,0,0,1-.334.1" transform="translate(-267.568 -138.247)" fill="#2474ff"/>
    <path id="패스_138" data-name="패스 138" d="M368.859,148.651a7.508,7.508,0,0,0-4.809-5.962l-1.251-5.8c-4.47,2.241-7.042-.4-8.7-7.226,0,0-1.363,7.226-3.734,7.226s-3.417-8.552-3.417-8.552c-3.12,6.442-5.341,5.581-7.322,2.774a20.354,20.354,0,0,0-4.081,6.875c-2.5-5.652.833-24.12,17.2-19.618,6.751-4.608,16.852-2.352,19.387,5.95,0,0,10.972,6.292,1.708,20.956Z" transform="translate(-233.936 -80.649)" fill="#2474ff"/>
    <path id="패스_139" data-name="패스 139" d="M367.448,147.888a.6.6,0,0,1-.244-.052.609.609,0,0,1-.352-.468,6.917,6.917,0,0,0-4.392-5.47.607.607,0,0,1-.41-.452l-1.093-5.065a5.171,5.171,0,0,1-4.26.12c-1.665-.783-2.946-2.645-3.962-5.794-.658,2.326-1.888,5.421-3.783,5.421-2.136,0-3.244-4.371-3.742-7.245-1.335,2.319-2.6,3.466-3.934,3.577a3.825,3.825,0,0,1-3.114-1.779,21.249,21.249,0,0,0-3.471,6.161.6.6,0,0,1-1.109.021c-1.559-3.524-1.05-11.615,3.322-16.787,2.376-2.81,6.78-5.719,14.317-3.739a14.338,14.338,0,0,1,12.449-1.507,11.972,11.972,0,0,1,7.55,7.715,12.544,12.544,0,0,1,5.156,7.365c1.039,4.239-.12,9.057-3.446,14.322a.606.606,0,0,1-.172.178l-4.977,3.377a.6.6,0,0,1-.336.1m-4.292-7.036a8.114,8.114,0,0,1,4.7,5.416l4.13-2.8c3.089-4.929,4.174-9.391,3.224-13.265a11.361,11.361,0,0,0-4.79-6.726.609.609,0,0,1-.278-.35,10.793,10.793,0,0,0-6.869-7.146,13.118,13.118,0,0,0-11.605,1.522.594.594,0,0,1-.495.083c-5.613-1.545-10.228-.408-13.35,3.284a18.242,18.242,0,0,0-3.6,13.981,18.481,18.481,0,0,1,3.567-5.545.589.589,0,0,1,.475-.173.6.6,0,0,1,.438.253c.927,1.312,1.734,1.917,2.473,1.859.768-.064,2.053-.9,3.817-4.547a.6.6,0,0,1,1.139.193c.587,4.8,1.931,8.018,2.818,8.018.755,0,2.276-2.139,3.143-6.73a.6.6,0,0,1,1.177-.031c1,4.1,2.283,6.473,3.933,7.249a4.393,4.393,0,0,0,3.915-.424.6.6,0,0,1,.528,0,.61.61,0,0,1,.328.419Z" transform="translate(-232.524 -79.277)" fill="#2474ff"/>
    <path id="패스_140" data-name="패스 140" d="M447.721,201.819c-.29,3.8,1.336,7.024,3.633,7.2s4.395-2.754,4.685-6.552-1.336-7.024-3.633-7.2-4.395,2.754-4.685,6.552" transform="translate(-312.814 -135.736)" fill="#fff"/>
    <path id="패스_141" data-name="패스 141" d="M450.161,208.251c-.083,0-.167,0-.251-.01a3.338,3.338,0,0,1-1.68-.626.614.614,0,0,1-.149-.849.6.6,0,0,1,.839-.151,2.154,2.154,0,0,0,1.083.409,3.008,3.008,0,0,0,2.56-1.534,9.739,9.739,0,0,0,.7-9.092,2.58,2.58,0,0,0-4.857-.38,8.929,8.929,0,0,0-1.477,4.458,10.525,10.525,0,0,0,.015,1.812.608.608,0,0,1-.541.666.6.6,0,0,1-.658-.548,11.779,11.779,0,0,1-.017-2.024,10.165,10.165,0,0,1,1.7-5.078,3.751,3.751,0,0,1,6.907.541,10.957,10.957,0,0,1-.792,10.361,4.261,4.261,0,0,1-3.378,2.045" transform="translate(-311.416 -134.345)" fill="#2474ff"/>
    <path id="패스_142" data-name="패스 142" d="M453.876,210.666a.606.606,0,0,1-.6-.61c0-1.863,1.21-4,3.164-4.2a.609.609,0,0,1,.122,1.213c-1.357.14-2.081,1.825-2.081,2.987a.606.606,0,0,1-.6.61" transform="translate(-316.716 -143.1)" fill="#2474ff"/>
    <path id="패스_143" data-name="패스 143" d="M235.07,457.579a7.959,7.959,0,0,0-7.912-8.005c-4.33-.024-11.624.161-13.818,1.031h0a9.711,9.711,0,0,0,2.441,19.076,23.9,23.9,0,0,0,16.069-5.657,8.024,8.024,0,0,0,3.219-6.445" transform="translate(-144.078 -312.522)" fill="#fff"/>
    <path id="패스_144" data-name="패스 144" d="M214.386,468.9a10.322,10.322,0,0,1-2.633-20.264c2.761-1.069,12.151-1.071,14.013-1.062a8.574,8.574,0,0,1,8.511,8.615,8.69,8.69,0,0,1-3.448,6.924,24.361,24.361,0,0,1-16.442,5.787m-2.2-19.127a.6.6,0,0,1-.091.032,9.1,9.1,0,0,0,2.288,17.876,23.209,23.209,0,0,0,15.682-5.514l.03-.023a7.46,7.46,0,0,0,2.974-5.954,7.361,7.361,0,0,0-7.309-7.4c-5.032-.03-11.59.212-13.574.979" transform="translate(-142.681 -311.133)" fill="#2474ff"/>
    <rect id="사각형_26" data-name="사각형 26" width="17.321" height="28.14" transform="translate(125.805 106.54)" fill="#fff"/>
    <path id="패스_145" data-name="패스 145" d="M435.739,330.965a8.029,8.029,0,1,1-8.029-8.124,8.077,8.077,0,0,1,8.029,8.124" transform="translate(-293.245 -224.425)" fill="#fff"/>
    <path id="패스_146" data-name="패스 146" d="M434.905,421.814a8.661,8.661,0,1,1-8.661-8.763,8.712,8.712,0,0,1,8.661,8.763" transform="translate(-291.779 -287.135)" fill="#fff"/>
    <path id="패스_147" data-name="패스 147" d="M473.682,376.849a.606.606,0,0,1-.6-.61V348.1a.6.6,0,1,1,1.205,0v28.14a.606.606,0,0,1-.6.61" transform="translate(-330.555 -241.56)" fill="#2474ff"/>
    <path id="패스_148" data-name="패스 148" d="M416.187,391.349a.606.606,0,0,1-.6-.61V368.959a.6.6,0,1,1,1.205,0v21.781a.606.606,0,0,1-.6.61" transform="translate(-290.382 -256.06)" fill="#2474ff"/>
    <path id="패스_149" data-name="패스 149" d="M424.847,449.781a9.329,9.329,0,0,1-9.263-9.373.6.6,0,1,1,1.205,0,8.059,8.059,0,1,0,16.116,0,.6.6,0,1,1,1.205,0,9.329,9.329,0,0,1-9.263,9.373" transform="translate(-290.382 -305.728)" fill="#2474ff"/>
    <path id="패스_150" data-name="패스 150" d="M272.195,368.946c0,2.754-1.491,4.987-3.33,4.987s-3.33-2.233-3.33-4.987,1.491-4.987,3.33-4.987,3.33,2.233,3.33,4.987" transform="translate(-185.538 -253.008)" fill="#fff"/>
    <path id="패스_151" data-name="패스 151" d="M267.467,373.152c-2.2,0-3.932-2.459-3.932-5.6s1.727-5.6,3.932-5.6,3.932,2.458,3.932,5.6-1.727,5.6-3.932,5.6m0-9.974c-1.478,0-2.727,2-2.727,4.377s1.249,4.377,2.727,4.377,2.727-2,2.727-4.377-1.249-4.377-2.727-4.377" transform="translate(-184.14 -251.618)" fill="#2474ff"/>
    <path id="패스_152" data-name="패스 152" d="M275.173,372.221c0,2.559,3.5,4.633,7.825,4.633s7.825-2.074,7.825-4.633V359.013H275.173Z" transform="translate(-192.272 -249.57)" fill="#fff"/>
    <path id="패스_153" data-name="패스 153" d="M281.6,376.073c-4.726,0-8.428-2.3-8.428-5.242V357.623a.606.606,0,0,1,.6-.61h15.651a.606.606,0,0,1,.6.61v13.208c0,2.94-3.7,5.242-8.428,5.242m-7.223-17.841v12.6c0,2.181,3.308,4.023,7.223,4.023s7.223-1.842,7.223-4.023v-12.6Z" transform="translate(-190.875 -248.18)" fill="#2474ff"/>
    <path id="패스_154" data-name="패스 154" d="M290.824,348.449c0,2.559-3.5,4.633-7.825,4.633s-7.825-2.074-7.825-4.633,3.5-4.633,7.825-4.633,7.825,2.074,7.825,4.633" transform="translate(-192.272 -239.006)" fill="#fff"/>
    <path id="패스_155" data-name="패스 155" d="M283.987,359.959c3.43,0,6.342-1.307,7.4-3.125-1.057-1.818-3.969-3.125-7.4-3.125s-6.342,1.307-7.4,3.125c1.057,1.818,3.969,3.125,7.4,3.125" transform="translate(-193.261 -245.883)" fill="#fff"/>
    <path id="패스_156" data-name="패스 156" d="M283.581,359.763c-3.391,0-6.416-1.286-7.529-3.2l-.045-.077.045-.077c1.113-1.914,4.139-3.2,7.529-3.2s6.416,1.286,7.529,3.2l.045.077-.045.077c-1.113,1.914-4.139,3.2-7.529,3.2m-7.223-3.277c1.1,1.781,3.983,2.973,7.223,2.973s6.126-1.191,7.223-2.973c-1.1-1.782-3.982-2.972-7.223-2.972s-6.126,1.191-7.223,2.972" transform="translate(-192.855 -245.535)" fill="#2474ff"/>
    <path id="패스_157" data-name="패스 157" d="M281.6,352.3c-4.726,0-8.428-2.3-8.428-5.243s3.7-5.242,8.428-5.242,8.428,2.3,8.428,5.242-3.7,5.243-8.428,5.243m0-9.266c-3.915,0-7.223,1.842-7.223,4.023s3.308,4.023,7.223,4.023,7.223-1.842,7.223-4.023-3.308-4.023-7.223-4.023" transform="translate(-190.875 -237.615)" fill="#2474ff"/>
    <path id="패스_158" data-name="패스 158" d="M282.589,359.178c-3.545,0-6.727-1.377-7.919-3.425a.616.616,0,0,1,0-.619c1.192-2.048,4.374-3.425,7.919-3.425s6.727,1.377,7.918,3.425a.615.615,0,0,1,0,.618c-1.191,2.049-4.373,3.426-7.918,3.426m-6.675-3.735c1.12,1.5,3.786,2.515,6.675,2.515s5.554-1.019,6.675-2.515c-1.12-1.5-3.785-2.515-6.675-2.515s-5.554,1.019-6.675,2.515" transform="translate(-191.863 -244.493)" fill="#2474ff"/>
    <path id="패스_159" data-name="패스 159" d="M318.717,387.72l-2.766-5.5-4.9-1.465a1.794,1.794,0,0,0-2.194,1.107,1.827,1.827,0,0,0,1.054,2.343l3.5,1.328-.327,4.817" transform="translate(-215.725 -264.629)" fill="#fff"/>
    <path id="패스_160" data-name="패스 160" d="M311.684,389.568h-.042a.607.607,0,0,1-.56-.65l.3-4.364-3.083-1.168a2.4,2.4,0,0,1-1.344-1.269,2.443,2.443,0,0,1-.063-1.859,2.4,2.4,0,0,1,2.929-1.478l4.9,1.465a.6.6,0,0,1,.366.308l2.766,5.5a.613.613,0,0,1-.264.82.6.6,0,0,1-.81-.267l-2.648-5.27-4.656-1.391a1.2,1.2,0,0,0-1.459.736,1.215,1.215,0,0,0,.031.926,1.2,1.2,0,0,0,.669.632l3.5,1.328a.611.611,0,0,1,.39.613L312.285,389a.605.605,0,0,1-.6.568" transform="translate(-214.326 -263.241)" fill="#2474ff"/>
    <path id="패스_161" data-name="패스 161" d="M334.436,424.549a3.825,3.825,0,0,0,4.94-2.274,3.9,3.9,0,0,0-2.247-5,3.825,3.825,0,0,0-4.94,2.274,3.9,3.9,0,0,0,2.248,5" transform="translate(-231.939 -289.899)" fill="#fff"/>
    <path id="패스_162" data-name="패스 162" d="M334.382,424.017a4.373,4.373,0,0,1-1.553-.286,4.514,4.514,0,0,1-2.6-5.784,4.43,4.43,0,0,1,5.716-2.631,4.514,4.514,0,0,1,2.6,5.784,4.45,4.45,0,0,1-4.163,2.917m.008-7.767a3.242,3.242,0,0,0-3.033,2.125,3.289,3.289,0,0,0,1.895,4.214,3.229,3.229,0,0,0,4.165-1.917,3.289,3.289,0,0,0-1.895-4.214,3.18,3.18,0,0,0-1.131-.208" transform="translate(-230.544 -288.511)" fill="#161917"/>
    <path id="패스_163" data-name="패스 163" d="M310.438,400.554a36.213,36.213,0,0,1-8.841,1.305c-3.494,2.31-4.2,6.661-3.954,11.714,4.216,1.024,9.113.226,12.795-.476l2.692-7.274Z" transform="translate(-207.941 -278.447)" fill="#fff"/>
    <path id="패스_164" data-name="패스 164" d="M310.542,441.7c-3.681.7-8.578,1.5-12.795.476" transform="translate(-208.045 -307.05)" fill="#fff"/>
    <path id="패스_165" data-name="패스 165" d="M300.836,441.884a19.58,19.58,0,0,1-4.627-.508.61.61,0,0,1-.445-.735.6.6,0,0,1,.727-.451c3.869.939,8.315.324,12.543-.482a.6.6,0,0,1,.7.487.609.609,0,0,1-.48.712,45.7,45.7,0,0,1-8.42.977" transform="translate(-206.647 -305.659)" fill="#2474ff"/>
    <line id="선_1" data-name="선 1" x2="2.692" y2="5.27" transform="translate(102.498 122.107)" fill="#fff"/>
    <path id="패스_166" data-name="패스 166" d="M341.514,405.043a.6.6,0,0,1-.536-.33l-2.692-5.27a.613.613,0,0,1,.259-.821.6.6,0,0,1,.812.262l2.692,5.27a.613.613,0,0,1-.259.821.59.59,0,0,1-.276.068" transform="translate(-236.325 -277.057)" fill="#2474ff"/>
    <path id="패스_167" data-name="패스 167" d="M310.874,404.154a36.391,36.391,0,0,0,3.887-.3" transform="translate(-217.218 -280.742)" fill="#fff"/>
    <path id="패스_168" data-name="패스 168" d="M309.476,403.372a.61.61,0,0,1-.014-1.219,36.066,36.066,0,0,0,3.823-.294.61.61,0,0,1,.155,1.209,37.248,37.248,0,0,1-3.951.3h-.014" transform="translate(-215.82 -279.351)" fill="#2474ff"/>
    <path id="패스_169" data-name="패스 169" d="M277.918,429.487a45.91,45.91,0,0,1-7.622-2.949,1.627,1.627,0,0,1-.792-2.122,1.593,1.593,0,0,1,2.117-.829,63.708,63.708,0,0,0,7.069,2.663" transform="translate(-188.216 -294.362)" fill="#fff"/>
    <path id="패스_170" data-name="패스 170" d="M276.527,428.706a.6.6,0,0,1-.145-.018,46.39,46.39,0,0,1-7.73-2.987,2.252,2.252,0,0,1-1.091-2.92,2.2,2.2,0,0,1,1.222-1.183,2.171,2.171,0,0,1,1.692.042,63.536,63.536,0,0,0,7,2.637.61.61,0,0,1,.4.76.6.6,0,0,1-.751.407,63.845,63.845,0,0,1-7.139-2.689.982.982,0,0,0-.768-.02,1,1,0,0,0-.553.536,1.02,1.02,0,0,0,.493,1.323,46.233,46.233,0,0,0,7.514,2.911.61.61,0,0,1-.144,1.2" transform="translate(-186.825 -292.97)" fill="#2474ff"/>
    <path id="패스_171" data-name="패스 171" d="M275.437,416.493a45.638,45.638,0,0,1-9.763-3.744,1.779,1.779,0,0,1-.793-2.335,1.74,1.74,0,0,1,2.4-.8,50.452,50.452,0,0,0,8.927,3.639" transform="translate(-184.963 -284.604)" fill="#fff"/>
    <path id="패스_172" data-name="패스 172" d="M274.035,415.71a.593.593,0,0,1-.145-.018A45.927,45.927,0,0,1,264,411.9a2.382,2.382,0,0,1-1.063-3.14,2.34,2.34,0,0,1,3.227-1.074,50.133,50.133,0,0,0,8.821,3.595.611.611,0,0,1,.4.76.6.6,0,0,1-.751.407,51.325,51.325,0,0,1-9.033-3.682,1.148,1.148,0,0,0-.913-.077,1.128,1.128,0,0,0-.665.6,1.163,1.163,0,0,0,.523,1.53,44.749,44.749,0,0,0,9.634,3.7.61.61,0,0,1-.144,1.2" transform="translate(-183.56 -283.211)" fill="#2474ff"/>
    <path id="패스_173" data-name="패스 173" d="M275,402.684a46.374,46.374,0,0,1-10.489-4.583,1.742,1.742,0,0,0-2.464.776,1.784,1.784,0,0,0,.7,2.3,49.079,49.079,0,0,0,12.057,4.879" transform="translate(-182.979 -276.574)" fill="#fff"/>
    <path id="패스_174" data-name="패스 174" d="M273.413,405.283a.6.6,0,0,1-.145-.018,49.748,49.748,0,0,1-12.211-4.941,2.4,2.4,0,0,1,.5-4.358,2.311,2.311,0,0,1,1.867.223,45.733,45.733,0,0,0,10.356,4.525.611.611,0,0,1,.4.76.6.6,0,0,1-.751.407,46.883,46.883,0,0,1-10.62-4.642,1.1,1.1,0,0,0-.9-.106,1.177,1.177,0,0,0-.252,2.133,48.517,48.517,0,0,0,11.9,4.817.61.61,0,0,1-.144,1.2" transform="translate(-181.584 -275.186)" fill="#2474ff"/>
    <path id="패스_175" data-name="패스 175" d="M280.466,397.777a60.121,60.121,0,0,1-10.65-4.3,1.784,1.784,0,0,1-.715-2.358,1.736,1.736,0,0,1,2.408-.748,49.288,49.288,0,0,0,10.043,4.253" transform="translate(-187.896 -271.211)" fill="#fff"/>
    <path id="패스_176" data-name="패스 176" d="M279.06,397a.587.587,0,0,1-.176-.027,60.248,60.248,0,0,1-10.764-4.351,2.4,2.4,0,0,1,.461-4.374,2.287,2.287,0,0,1,1.819.2,48.89,48.89,0,0,0,9.922,4.2.611.611,0,0,1,.4.76.6.6,0,0,1-.751.407,50.087,50.087,0,0,1-10.165-4.306,1.1,1.1,0,0,0-.879-.1,1.149,1.149,0,0,0-.7.59,1.177,1.177,0,0,0,.467,1.547,59.031,59.031,0,0,0,10.537,4.254.611.611,0,0,1,.4.761.6.6,0,0,1-.576.432" transform="translate(-186.49 -269.819)" fill="#2474ff"/>
    <path id="패스_177" data-name="패스 177" d="M345.734,402.939l29.942,3.132L373.842,423.5,343.9,420.367Z" transform="translate(-240.294 -280.105)" fill="#fff"/>
    <path id="패스_178" data-name="패스 178" d="M428.566,415.2a8.12,8.12,0,1,1-8.83,7.215,8.1,8.1,0,0,1,8.83-7.215" transform="translate(-293.252 -288.6)" fill="#fff"/>
    <path id="패스_179" data-name="패스 179" d="M372.445,422.717a.546.546,0,0,1-.063,0l-29.942-3.132a.6.6,0,0,1-.406-.223.614.614,0,0,1-.131-.448l1.834-17.428a.6.6,0,0,1,.661-.542l29.943,3.132a.607.607,0,0,1,.537.669.6.6,0,0,1-.661.544l-29.345-3.069-1.706,16.216,29.341,3.069a.61.61,0,0,1-.061,1.216" transform="translate(-238.896 -278.714)" fill="#2474ff"/>
    <path id="패스_180" data-name="패스 180" d="M442.822,467.229a9.335,9.335,0,0,1-1-.054.61.61,0,0,1,.128-1.213,7.926,7.926,0,0,0,4.784-.989.6.6,0,0,1,.82.234.614.614,0,0,1-.231.83,9.1,9.1,0,0,1-4.5,1.192" transform="translate(-308.342 -323.175)" fill="#2474ff"/>
    <path id="패스_181" data-name="패스 181" d="M197.439,243.55a7.63,7.63,0,0,1,7.584,7.674c0,.022,0,.044,0,.066a4.113,4.113,0,0,1,.711-.066,4.2,4.2,0,1,1-3.694,6.093,7.485,7.485,0,0,1-4.6,1.581,7.675,7.675,0,0,1,0-15.349" transform="translate(-132.658 -169.305)" fill="#fff"/>
    <path id="패스_182" data-name="패스 182" d="M192.669,249.161a7.719,7.719,0,0,0-.741,3.311,7.63,7.63,0,0,0,7.584,7.674,7.485,7.485,0,0,0,4.6-1.581,4.138,4.138,0,0,0,3.694,2.3,4.087,4.087,0,0,0,1.936-.487,4.124,4.124,0,0,1-7.7.843,7.485,7.485,0,0,1-4.6,1.581,7.693,7.693,0,0,1-4.772-13.638" transform="translate(-132.658 -173.206)" fill="#e0e0e0"/>
    <path id="패스_183" data-name="패스 183" d="M204.334,258.834a4.706,4.706,0,0,1-3.876-2.033,8.019,8.019,0,0,1-4.416,1.317,8.285,8.285,0,1,1,8.165-8.892l.127,0a4.805,4.805,0,0,1,0,9.61m-3.694-3.517a.6.6,0,0,1,.133.015.605.605,0,0,1,.4.318,3.524,3.524,0,0,0,3.157,1.964,3.586,3.586,0,0,0,0-7.171,3.519,3.519,0,0,0-.609.057.6.6,0,0,1-.491-.134.613.613,0,0,1-.215-.466c0-.026,0-.052,0-.078a6.982,6.982,0,1,0-6.982,7.077,6.859,6.859,0,0,0,4.232-1.456.6.6,0,0,1,.366-.125" transform="translate(-131.26 -167.915)" fill="#2474ff"/>
    <path id="패스_184" data-name="패스 184" d="M263.2,313.2a3.2,3.2,0,1,0,3.2-3.239,3.22,3.22,0,0,0-3.2,3.239" transform="translate(-183.903 -215.47)" fill="#fff"/>
    <path id="패스_185" data-name="패스 185" d="M264.335,312.46a3.289,3.289,0,0,0-.073.685,3.221,3.221,0,0,0,3.2,3.24,3.164,3.164,0,0,0,2.061-.763,3.2,3.2,0,0,1-6.329-.685,3.247,3.247,0,0,1,1.14-2.477" transform="translate(-183.903 -217.208)" fill="#e0e0e0"/>
    <path id="패스_186" data-name="패스 186" d="M265,315.656a3.849,3.849,0,1,1,3.8-3.849,3.831,3.831,0,0,1-3.8,3.849m0-6.479a2.63,2.63,0,1,0,2.6,2.63,2.617,2.617,0,0,0-2.6-2.63" transform="translate(-182.505 -214.079)" fill="#2474ff"/>
    <path id="패스_187" data-name="패스 187" d="M201.384,34.086a.594.594,0,0,1-.3-.082.611.611,0,0,1-.3-.528V11.719a.612.612,0,0,1,.281-.515L218.446.094a.6.6,0,0,1,.612-.019.612.612,0,0,1,.312.534V23.292a.612.612,0,0,1-.3.528L201.685,34a.6.6,0,0,1-.3.082m.6-22.03V32.419l16.179-9.478V1.716Z" transform="translate(-140.292 0)" fill="#2474ff"/>
    <path id="패스_188" data-name="패스 188" d="M695.659,126.977a.6.6,0,0,1-.3-.082l-10.762-6.3a.611.611,0,0,1-.3-.528V106.02a.611.611,0,0,1,.311-.534.6.6,0,0,1,.613.018l10.762,6.878a.612.612,0,0,1,.281.516v13.469a.61.61,0,0,1-.3.528.6.6,0,0,1-.3.082m-10.16-7.266,9.557,5.6V113.234l-9.557-6.108Z" transform="translate(-478.138 -73.277)" fill="#2474ff"/>
    <path id="패스_189" data-name="패스 189" d="M4.38,372.219a4.2,4.2,0,0,1-2.478-.753c-2.826-2.008-2.463-7.3.827-12.038A14.456,14.456,0,0,1,8.2,354.545c2.1-.988,4.035-.986,5.433.008,2.827,2.008,2.463,7.3-.827,12.038-2.455,3.537-5.745,5.628-8.431,5.628m6.794-17.193a5.891,5.891,0,0,0-2.462.625,13.239,13.239,0,0,0-5,4.478C.91,364.172.4,368.907,2.594,370.469s6.425-.535,9.23-4.578,3.318-8.778,1.12-10.339a3,3,0,0,0-1.771-.525m-7.952,4.753h0Z" transform="translate(0 -245.95)" fill="#2474ff"/>
  </g>
</svg>
